# xmcd CD database file
#
# Track frame offsets:
#	150
#	12156
#	20023
#	31005
#	40133
#	50494
#	58224
#	69764
#	79970
#	88626
#	99968
#	108303
#	120447
#	130287
#	138871
#
# Disc length: 1981 seconds
#
# Revision: 0
# Processed by: cddbd v1.5.1PL0 Copyright (c) Steve Scherf et al.
# Submitted via: CDex 1.51
#
DISCID=b907bb0f
DTITLE=Johnny Cash - Johnny Cash Collection Vol. 3
DYEAR=2003
DGENRE=Country
TTITLE0=Don' My Time
TTITLE1=If the Good Lord's Willing
TTITLE2=I Heard that Lonesome Whistle
TTITLE3=Remember Me
TTITLE4=I Was There When It Happened
TTITLE5=Come In Stranger
TTITLE6=Big River
TTITLE7=Ballad of a Teenage Queen
TTITLE8=Guess Things Happen that Way
TTITLE9=Oh Lonesome Me
TTITLE10=Sugartime
TTITLE11=You're the Nearest Thing to Heaven
TTITLE12=Born to Lose
TTITLE13=Always Alone
TTITLE14=Story of a Broken Heart
EXTD=YEAR: 2003
EXTT0=
EXTT1=
EXTT2=
EXTT3=
EXTT4=
EXTT5=
EXTT6=
EXTT7=
EXTT8=
EXTT9=
EXTT10=
EXTT11=
EXTT12=
EXTT13=
EXTT14=
PLAYORDER=
